<svg width="50" height="50" viewBox="0 0 50 50" fill="none" xmlns="http://www.w3.org/2000/svg">
<circle cx="25" cy="25" r="24.5" stroke="black"/>
<path d="M34.5353 19.6591C32.3723 18.2491 28.95 18.0101 28.8033 18.0018C28.6918 17.9944 28.5802 18.0152 28.484 18.0614C28.3878 18.1076 28.3117 18.1769 28.2663 18.2597C28.201 18.3786 28.1457 18.5009 28.1005 18.6258C29.5315 18.8217 31.2891 19.2155 32.8793 20.0147C32.94 20.0452 32.9927 20.0851 33.0343 20.132C33.0759 20.179 33.1058 20.2322 33.122 20.2884C33.1383 20.3447 33.1407 20.4031 33.1292 20.4601C33.1176 20.5172 33.0923 20.5718 33.0546 20.6209C33.017 20.6701 32.9677 20.7127 32.9097 20.7464C32.8517 20.7801 32.7861 20.8043 32.7166 20.8175C32.6471 20.8306 32.575 20.8326 32.5046 20.8232C32.4341 20.8139 32.3666 20.7934 32.306 20.7629C29.5723 19.3885 26.1582 19.3203 25.5 19.3203C24.8424 19.3203 21.4261 19.3889 18.694 20.7624C18.6334 20.7929 18.5659 20.8134 18.4954 20.8228C18.425 20.8322 18.3529 20.8302 18.2834 20.817C18.143 20.7904 18.0214 20.7197 17.9454 20.6205C17.8693 20.5213 17.8451 20.4017 17.878 20.288C17.9108 20.1743 17.9981 20.0759 18.1207 20.0143C19.7109 19.2173 21.4685 18.8217 22.8995 18.6276C22.8168 18.4093 22.7418 18.2716 22.7364 18.2597C22.6912 18.1763 22.6148 18.1066 22.5179 18.0603C22.4211 18.014 22.3087 17.9935 22.1967 18.0018C22.05 18.0106 18.6277 18.2491 16.4348 19.6781C15.2908 20.5353 13 25.5483 13 29.8823C13 29.9598 13.0255 30.0337 13.0723 30.1006C14.6516 32.3494 18.9636 32.9369 19.9462 32.9629H19.963C20.0488 32.9631 20.1334 32.9468 20.2099 32.9155C20.2864 32.8841 20.3527 32.8385 20.4033 32.7825L21.3962 31.6752C18.7152 31.115 17.3457 30.1626 17.2674 30.1059C17.1593 30.0286 17.0935 29.9197 17.0845 29.8032C17.0756 29.6866 17.1241 29.572 17.2196 29.4845C17.315 29.3969 17.4494 29.3437 17.5934 29.3364C17.7373 29.3291 17.8789 29.3685 17.987 29.4457C18.0185 29.4699 20.5408 31.2026 25.5 31.2026C30.4674 31.2026 32.9897 29.4629 33.0152 29.4457C33.1237 29.369 33.2653 29.3303 33.4089 29.338C33.5526 29.3458 33.6866 29.3994 33.7815 29.4871C33.8285 29.5303 33.8645 29.5806 33.8875 29.6351C33.9104 29.6896 33.9199 29.7472 33.9154 29.8047C33.9108 29.8621 33.8924 29.9183 33.861 29.97C33.8296 30.0217 33.786 30.0678 33.7326 30.1059C33.6543 30.1626 32.2848 31.115 29.6038 31.6752L30.5973 32.7825C30.6478 32.8385 30.714 32.884 30.7904 32.9154C30.8668 32.9467 30.9513 32.963 31.037 32.9629H31.0533C32.037 32.9369 36.3484 32.349 37.9283 30.1006C37.9745 30.0337 38 29.9598 38 29.8823C38 25.5483 35.7092 20.5358 34.5353 19.6591V19.6591ZM21.9674 28.122C20.9163 28.122 20.0652 27.3342 20.0652 26.3616C20.0652 25.389 20.9163 24.6013 21.9674 24.6013C23.0185 24.6013 23.8696 25.389 23.8696 26.3616C23.8696 27.3342 23.0185 28.122 21.9674 28.122ZM29.0326 28.122C27.9815 28.122 27.1304 27.3342 27.1304 26.3616C27.1304 25.389 27.9815 24.6013 29.0326 24.6013C30.0837 24.6013 30.9348 25.389 30.9348 26.3616C30.9348 27.3342 30.0837 28.122 29.0326 28.122Z" fill="black"/>
</svg>
