<svg width="50" height="50" viewBox="0 0 50 50" fill="none" xmlns="http://www.w3.org/2000/svg">
<circle cx="25" cy="25" r="24.5" stroke="black"/>
<path fill-rule="evenodd" clip-rule="evenodd" d="M29.9041 35.3496H26.5741H23.2407C23.2407 35.3496 23.2499 33.7406 23.2407 32.6363C18.6799 33.4354 17.4074 30.6014 17.4074 30.6014C16.5741 29.2447 15.7407 28.5664 15.7407 28.5664C14.0741 27.7606 15.7407 27.8881 15.7407 27.8881C17.4074 27.8881 18.2407 29.2447 18.2407 29.2447C19.7032 31.2668 22.3057 30.9412 23.2407 30.6014C23.2407 29.923 23.6057 28.8974 24.0741 28.5664C20.4341 28.2327 17.4041 26.5314 17.4041 23.1398C17.4041 19.7482 18.2407 19.0699 19.0741 18.3916C18.9057 18.0572 18.2082 16.8213 19.0999 15C19.0999 15 20.7374 15 22.4041 17.035C23.2299 16.3627 25.7374 16.3566 26.5716 16.3566C27.4041 16.3566 29.9116 16.3627 30.7374 17.035C32.4041 15 34.0449 15 34.0449 15C34.9366 16.8213 34.2391 18.0572 34.0707 18.3916C34.9041 19.0699 35.7374 19.7482 35.7374 23.1398C35.7374 26.5314 32.7107 28.2327 29.0707 28.5664C29.5391 28.8974 29.9041 30.0655 29.9041 30.6014V35.3496Z" fill="black"/>
</svg>
