<svg width="50" height="50" viewBox="0 0 50 50" fill="none" xmlns="http://www.w3.org/2000/svg">
<circle cx="25" cy="25" r="24.5" stroke="black"/>
<path fill-rule="evenodd" clip-rule="evenodd" d="M35.6274 23.6604C35.8888 24.0539 36.029 24.5155 36.0308 24.988C36.0306 25.4539 35.8965 25.9099 35.6446 26.3018C35.3927 26.6937 35.0335 27.0049 34.6097 27.1986C34.649 27.44 34.6688 27.6842 34.6689 27.9288C34.6689 31.6592 30.3464 34.6593 25.0173 34.6593C19.6882 34.6593 15.3657 31.6395 15.3657 27.9288C15.365 27.6842 15.3848 27.4399 15.4249 27.1986C15.1036 27.0547 14.8178 26.8422 14.5875 26.576C14.3572 26.3098 14.188 25.9964 14.0917 25.6578C13.9955 25.3192 13.9747 24.9636 14.0306 24.6161C14.0866 24.2685 14.218 23.9375 14.4156 23.6462C14.6132 23.3549 14.8723 23.1104 15.1745 22.93C15.4767 22.7495 15.8148 22.6374 16.165 22.6017C16.5152 22.5659 16.8689 22.6072 17.2014 22.7229C17.5339 22.8385 17.837 23.0255 18.0894 23.2708C19.7671 22.0668 22.0764 21.2971 24.6423 21.2181L25.866 15.4548C25.8733 15.3984 25.893 15.3444 25.9237 15.2966C25.9544 15.2488 25.9954 15.2084 26.0436 15.1784C26.1369 15.1177 26.2505 15.0964 26.3594 15.1192L30.3662 15.9679C30.5532 15.5884 30.8725 15.2903 31.264 15.1297C31.6555 14.9692 32.0922 14.9572 32.4919 15.0962C32.8916 15.2351 33.2267 15.5153 33.4343 15.884C33.6418 16.2528 33.7074 16.6847 33.6187 17.0984C33.5301 17.5122 33.2933 17.8793 32.9529 18.1306C32.6125 18.382 32.1919 18.5002 31.7704 18.4632C31.3489 18.4261 30.9555 18.2363 30.6641 17.9294C30.3728 17.6226 30.2036 17.2198 30.1885 16.7969L26.5963 16.0272L25.491 21.1984C28.0174 21.2971 30.2872 22.0668 31.9452 23.2511C32.2866 22.9245 32.7163 22.7052 33.1811 22.6204C33.6459 22.5355 34.1253 22.5888 34.5601 22.7737C34.9949 22.9585 35.366 23.2668 35.6274 23.6604ZM19.7802 25.7511C19.5915 26.0335 19.4908 26.3655 19.4908 26.7051C19.4913 27.1604 19.6724 27.5968 19.9943 27.9188C20.3162 28.2407 20.7527 28.4218 21.208 28.4223C21.5476 28.4223 21.8796 28.3216 22.162 28.1329C22.4444 27.9442 22.6644 27.676 22.7944 27.3622C22.9244 27.0485 22.9584 26.7032 22.8921 26.3701C22.8259 26.037 22.6623 25.7311 22.4222 25.4909C22.182 25.2508 21.8761 25.0872 21.543 25.021C21.2099 24.9547 20.8646 24.9887 20.5508 25.1187C20.2371 25.2486 19.9689 25.4687 19.7802 25.7511ZM25.0173 32.5277C25.6686 32.5277 27.9187 32.4487 29.103 31.2645C29.1794 31.177 29.2216 31.0648 29.2216 30.9487C29.2216 30.8325 29.1794 30.7203 29.103 30.6329C29.0619 30.5906 29.0128 30.557 28.9586 30.5341C28.9044 30.5111 28.8461 30.4993 28.7872 30.4993C28.7283 30.4993 28.67 30.5111 28.6157 30.5341C28.5615 30.557 28.5124 30.5906 28.4714 30.6329C27.7411 31.3829 26.1423 31.6395 25.0173 31.6395C23.8923 31.6395 22.3133 31.3829 21.5632 30.6329C21.4795 30.5491 21.3659 30.5021 21.2474 30.5021C21.129 30.5021 21.0154 30.5491 20.9316 30.6329C20.8479 30.7166 20.8008 30.8302 20.8008 30.9487C20.8008 31.0671 20.8479 31.1807 20.9316 31.2645C22.0962 32.429 24.366 32.5277 25.0173 32.5277ZM27.8332 28.1526C28.1155 28.3413 28.4475 28.442 28.7872 28.442C29.2424 28.4415 29.6789 28.2604 30.0008 27.9385C30.3227 27.6166 30.5038 27.1801 30.5043 26.7249C30.5043 26.3852 30.4036 26.0532 30.2149 25.7709C30.0262 25.4885 29.7581 25.2684 29.4443 25.1384C29.1305 25.0084 28.7853 24.9744 28.4522 25.0407C28.1191 25.107 27.8131 25.2705 27.5729 25.5106C27.3328 25.7508 27.1692 26.0568 27.103 26.3899C27.0367 26.723 27.0707 27.0682 27.2007 27.382C27.3307 27.6958 27.5508 27.9639 27.8332 28.1526Z" fill="black"/>
</svg>
