<svg width="328" height="414" viewBox="0 0 328 414" fill="none" xmlns="http://www.w3.org/2000/svg">
<path d="M2.43 2.462C2.97 2.462 3.366 2.048 3.366 1.526C3.366 1.04 2.952 0.643999 2.43 0.643999C1.908 0.643999 1.494 1.058 1.494 1.544C1.494 2.048 1.908 2.462 2.43 2.462ZM1.782 14H3.06V4.532H1.782V14ZM11.44 4.46C9.80198 4.46 8.52398 5.126 7.83998 6.278V4.532H6.61598V14H7.89398V9.032C7.89398 6.872 9.17198 5.612 11.206 5.612C13.006 5.612 14.05 6.638 14.05 8.636V14H15.328V8.51C15.328 5.792 13.744 4.46 11.44 4.46ZM23.3336 12.506C22.9736 12.83 22.4516 12.992 21.9296 12.992C20.8676 12.992 20.2916 12.38 20.2916 11.264V5.612H23.1716V4.532H20.2916V2.462H19.0136V4.532H17.3216V5.612H19.0136V11.336C19.0136 13.082 20.0036 14.09 21.7856 14.09C22.5236 14.09 23.2796 13.874 23.7836 13.424L23.3336 12.506ZM34.0381 9.266C34.0381 6.422 32.1121 4.46 29.4481 4.46C26.7841 4.46 24.8221 6.458 24.8221 9.266C24.8221 12.074 26.8381 14.09 29.7901 14.09C31.2841 14.09 32.5981 13.55 33.4441 12.542L32.7241 11.714C32.0041 12.542 30.9781 12.956 29.8261 12.956C27.7561 12.956 26.2441 11.642 26.1001 9.662H34.0201C34.0201 9.518 34.0381 9.374 34.0381 9.266ZM29.4481 5.558C31.3021 5.558 32.6521 6.854 32.8141 8.708H26.1001C26.2621 6.854 27.6121 5.558 29.4481 5.558ZM37.8634 6.386V4.532H36.6394V14H37.9174V9.176C37.9174 6.944 39.1234 5.684 41.1034 5.684C41.1934 5.684 41.3014 5.702 41.4094 5.702V4.46C39.6634 4.46 38.4574 5.126 37.8634 6.386ZM46.996 1.634C47.536 1.634 48.04 1.796 48.4 2.102L48.832 1.148C48.364 0.751999 47.644 0.553999 46.942 0.553999C45.088 0.553999 44.08 1.67 44.08 3.362V4.532H42.388V5.612H44.08V14H45.358V5.612H48.238V4.532H45.322V3.416C45.322 2.246 45.898 1.634 46.996 1.634ZM53.0999 4.46C51.6059 4.46 50.2019 4.928 49.2479 5.738L49.8239 6.692C50.5979 6.008 51.7499 5.576 52.9739 5.576C54.7379 5.576 55.6559 6.458 55.6559 8.078V8.654H52.6499C49.9319 8.654 48.9959 9.878 48.9959 11.336C48.9959 12.974 50.3099 14.09 52.4519 14.09C54.0179 14.09 55.1339 13.496 55.7099 12.524V14H56.9339V8.132C56.9339 5.684 55.5479 4.46 53.0999 4.46ZM52.6499 13.082C51.1379 13.082 50.2559 12.398 50.2559 11.3C50.2559 10.328 50.8499 9.608 52.6859 9.608H55.6559V11.156C55.1519 12.398 54.0899 13.082 52.6499 13.082ZM64.3642 14.09C65.9662 14.09 67.3162 13.442 68.0722 12.218L67.1182 11.57C66.4702 12.524 65.4622 12.956 64.3642 12.956C62.2942 12.956 60.7822 11.498 60.7822 9.266C60.7822 7.052 62.2942 5.576 64.3642 5.576C65.4622 5.576 66.4702 6.026 67.1182 6.98L68.0722 6.332C67.3162 5.09 65.9662 4.46 64.3642 4.46C61.5382 4.46 59.4862 6.44 59.4862 9.266C59.4862 12.092 61.5382 14.09 64.3642 14.09ZM78.6866 9.266C78.6866 6.422 76.7606 4.46 74.0966 4.46C71.4326 4.46 69.4706 6.458 69.4706 9.266C69.4706 12.074 71.4866 14.09 74.4386 14.09C75.9326 14.09 77.2466 13.55 78.0926 12.542L77.3726 11.714C76.6526 12.542 75.6266 12.956 74.4746 12.956C72.4046 12.956 70.8926 11.642 70.7486 9.662H78.6686C78.6686 9.518 78.6866 9.374 78.6866 9.266ZM74.0966 5.558C75.9506 5.558 77.3006 6.854 77.4626 8.708H70.7486C70.9106 6.854 72.2606 5.558 74.0966 5.558ZM96.3308 14L93.2528 9.68C95.0888 9.086 96.1328 7.7 96.1328 5.72C96.1328 3.02 94.1888 1.4 90.9848 1.4H86.2688V14H87.6008V10.004H90.9848C91.3448 10.004 91.6688 9.986 91.9928 9.95L94.8728 14H96.3308ZM90.9488 8.87H87.6008V2.552H90.9488C93.4688 2.552 94.8008 3.704 94.8008 5.72C94.8008 7.7 93.4688 8.87 90.9488 8.87ZM102.751 14.108C105.973 14.108 107.449 12.524 107.449 10.67C107.449 6.08 99.6906 8.168 99.6906 4.712C99.6906 3.452 100.717 2.426 103.021 2.426C104.137 2.426 105.397 2.768 106.477 3.47L106.927 2.408C105.919 1.706 104.443 1.292 103.021 1.292C99.8166 1.292 98.3766 2.894 98.3766 4.748C98.3766 9.41 106.135 7.286 106.135 10.742C106.135 11.984 105.109 12.974 102.751 12.974C101.095 12.974 99.4926 12.326 98.5926 11.444L98.0706 12.47C99.0066 13.442 100.861 14.108 102.751 14.108ZM113.825 14.108C117.047 14.108 118.523 12.524 118.523 10.67C118.523 6.08 110.765 8.168 110.765 4.712C110.765 3.452 111.791 2.426 114.095 2.426C115.211 2.426 116.471 2.768 117.551 3.47L118.001 2.408C116.993 1.706 115.517 1.292 114.095 1.292C110.891 1.292 109.451 2.894 109.451 4.748C109.451 9.41 117.209 7.286 117.209 10.742C117.209 11.984 116.183 12.974 113.825 12.974C112.169 12.974 110.567 12.326 109.667 11.444L109.145 12.47C110.081 13.442 111.935 14.108 113.825 14.108ZM124.452 6.8L128.016 2.318V1.4H119.916V2.552H126.36L122.868 6.926V7.88H123.768C126.108 7.88 127.17 8.87 127.17 10.382C127.17 11.948 126.018 12.92 123.93 12.92C122.292 12.92 120.834 12.308 120.024 11.462L119.394 12.488C120.366 13.478 122.112 14.108 123.93 14.108C126.972 14.108 128.502 12.488 128.502 10.382C128.502 8.366 127.152 6.944 124.452 6.8ZM136.161 1.4H131.445V14H132.777V10.022H136.161C139.365 10.022 141.309 8.402 141.309 5.72C141.309 3.02 139.365 1.4 136.161 1.4ZM136.125 8.852H132.777V2.552H136.125C138.645 2.552 139.977 3.704 139.977 5.72C139.977 7.7 138.645 8.852 136.125 8.852ZM152.128 9.266C152.128 6.422 150.202 4.46 147.538 4.46C144.874 4.46 142.912 6.458 142.912 9.266C142.912 12.074 144.928 14.09 147.88 14.09C149.374 14.09 150.688 13.55 151.534 12.542L150.814 11.714C150.094 12.542 149.068 12.956 147.916 12.956C145.846 12.956 144.334 11.642 144.19 9.662H152.11C152.11 9.518 152.128 9.374 152.128 9.266ZM147.538 5.558C149.392 5.558 150.742 6.854 150.904 8.708H144.19C144.352 6.854 145.702 5.558 147.538 5.558ZM155.953 6.386V4.532H154.729V14H156.007V9.176C156.007 6.944 157.213 5.684 159.193 5.684C159.283 5.684 159.391 5.702 159.499 5.702V4.46C157.753 4.46 156.547 5.126 155.953 6.386ZM164.422 14.09C166.888 14.09 168.328 13.028 168.328 11.39C168.328 7.754 162.19 9.68 162.19 7.124C162.19 6.224 162.946 5.558 164.656 5.558C165.628 5.558 166.618 5.792 167.446 6.368L168.004 5.342C167.212 4.802 165.88 4.46 164.656 4.46C162.244 4.46 160.912 5.612 160.912 7.16C160.912 10.904 167.05 8.96 167.05 11.426C167.05 12.362 166.312 12.974 164.512 12.974C163.18 12.974 161.902 12.506 161.146 11.912L160.57 12.92C161.344 13.586 162.856 14.09 164.422 14.09ZM174.56 14.09C177.332 14.09 179.366 12.074 179.366 9.266C179.366 6.458 177.332 4.46 174.56 4.46C171.788 4.46 169.736 6.458 169.736 9.266C169.736 12.074 171.788 14.09 174.56 14.09ZM174.56 12.956C172.544 12.956 171.032 11.48 171.032 9.266C171.032 7.052 172.544 5.576 174.56 5.576C176.576 5.576 178.07 7.052 178.07 9.266C178.07 11.48 176.576 12.956 174.56 12.956ZM186.799 4.46C185.161 4.46 183.883 5.126 183.199 6.278V4.532H181.975V14H183.253V9.032C183.253 6.872 184.531 5.612 186.565 5.612C188.365 5.612 189.409 6.638 189.409 8.636V14H190.687V8.51C190.687 5.792 189.103 4.46 186.799 4.46ZM197.469 4.46C195.975 4.46 194.571 4.928 193.617 5.738L194.193 6.692C194.967 6.008 196.119 5.576 197.343 5.576C199.107 5.576 200.025 6.458 200.025 8.078V8.654H197.019C194.301 8.654 193.365 9.878 193.365 11.336C193.365 12.974 194.679 14.09 196.821 14.09C198.387 14.09 199.503 13.496 200.079 12.524V14H201.303V8.132C201.303 5.684 199.917 4.46 197.469 4.46ZM197.019 13.082C195.507 13.082 194.625 12.398 194.625 11.3C194.625 10.328 195.219 9.608 197.055 9.608H200.025V11.156C199.521 12.398 198.459 13.082 197.019 13.082ZM217.747 9.266C217.747 6.422 215.821 4.46 213.157 4.46C210.493 4.46 208.531 6.458 208.531 9.266C208.531 12.074 210.547 14.09 213.499 14.09C214.993 14.09 216.307 13.55 217.153 12.542L216.433 11.714C215.713 12.542 214.687 12.956 213.535 12.956C211.465 12.956 209.953 11.642 209.809 9.662H217.729C217.729 9.518 217.747 9.374 217.747 9.266ZM213.157 5.558C215.011 5.558 216.361 6.854 216.523 8.708H209.809C209.971 6.854 211.321 5.558 213.157 5.558ZM227.573 14L223.793 9.14L227.357 4.532H225.953L223.109 8.24L220.265 4.532H218.825L222.389 9.14L218.645 14H220.085L223.109 10.04L226.115 14H227.573ZM234.236 12.506C233.876 12.83 233.354 12.992 232.832 12.992C231.77 12.992 231.194 12.38 231.194 11.264V5.612H234.074V4.532H231.194V2.462H229.916V4.532H228.224V5.612H229.916V11.336C229.916 13.082 230.906 14.09 232.688 14.09C233.426 14.09 234.182 13.874 234.686 13.424L234.236 12.506ZM244.94 9.266C244.94 6.422 243.014 4.46 240.35 4.46C237.686 4.46 235.724 6.458 235.724 9.266C235.724 12.074 237.74 14.09 240.692 14.09C242.186 14.09 243.5 13.55 244.346 12.542L243.626 11.714C242.906 12.542 241.88 12.956 240.728 12.956C238.658 12.956 237.146 11.642 237.002 9.662H244.922C244.922 9.518 244.94 9.374 244.94 9.266ZM240.35 5.558C242.204 5.558 243.554 6.854 243.716 8.708H237.002C237.164 6.854 238.514 5.558 240.35 5.558ZM252.366 4.46C250.728 4.46 249.45 5.126 248.766 6.278V4.532H247.542V14H248.82V9.032C248.82 6.872 250.098 5.612 252.132 5.612C253.932 5.612 254.976 6.638 254.976 8.636V14H256.254V8.51C256.254 5.792 254.67 4.46 252.366 4.46ZM267.121 0.643999V6.332C266.329 5.108 265.033 4.46 263.521 4.46C260.821 4.46 258.805 6.404 258.805 9.266C258.805 12.128 260.821 14.09 263.521 14.09C265.087 14.09 266.401 13.406 267.175 12.128V14H268.399V0.643999H267.121ZM263.629 12.956C261.613 12.956 260.101 11.48 260.101 9.266C260.101 7.052 261.613 5.576 263.629 5.576C265.627 5.576 267.139 7.052 267.139 9.266C267.139 11.48 265.627 12.956 263.629 12.956ZM274.496 14.09C276.962 14.09 278.402 13.028 278.402 11.39C278.402 7.754 272.264 9.68 272.264 7.124C272.264 6.224 273.02 5.558 274.73 5.558C275.702 5.558 276.692 5.792 277.52 6.368L278.078 5.342C277.286 4.802 275.954 4.46 274.73 4.46C272.318 4.46 270.986 5.612 270.986 7.16C270.986 10.904 277.124 8.96 277.124 11.426C277.124 12.362 276.386 12.974 274.586 12.974C273.254 12.974 271.976 12.506 271.22 11.912L270.644 12.92C271.418 13.586 272.93 14.09 274.496 14.09ZM295.807 14L292.729 9.68C294.565 9.086 295.609 7.7 295.609 5.72C295.609 3.02 293.665 1.4 290.461 1.4H285.745V14H287.077V10.004H290.461C290.821 10.004 291.145 9.986 291.469 9.95L294.349 14H295.807ZM290.425 8.87H287.077V2.552H290.425C292.945 2.552 294.277 3.704 294.277 5.72C294.277 7.7 292.945 8.87 290.425 8.87ZM302.227 14.108C305.449 14.108 306.925 12.524 306.925 10.67C306.925 6.08 299.167 8.168 299.167 4.712C299.167 3.452 300.193 2.426 302.497 2.426C303.613 2.426 304.873 2.768 305.953 3.47L306.403 2.408C305.395 1.706 303.919 1.292 302.497 1.292C299.293 1.292 297.853 2.894 297.853 4.748C297.853 9.41 305.611 7.286 305.611 10.742C305.611 11.984 304.585 12.974 302.227 12.974C300.571 12.974 298.969 12.326 298.069 11.444L297.547 12.47C298.483 13.442 300.337 14.108 302.227 14.108ZM313.301 14.108C316.523 14.108 317.999 12.524 317.999 10.67C317.999 6.08 310.241 8.168 310.241 4.712C310.241 3.452 311.267 2.426 313.571 2.426C314.687 2.426 315.947 2.768 317.027 3.47L317.477 2.408C316.469 1.706 314.993 1.292 313.571 1.292C310.367 1.292 308.927 2.894 308.927 4.748C308.927 9.41 316.685 7.286 316.685 10.742C316.685 11.984 315.659 12.974 313.301 12.974C311.645 12.974 310.043 12.326 309.143 11.444L308.621 12.47C309.557 13.442 311.411 14.108 313.301 14.108ZM323.929 6.8L327.493 2.318V1.4H319.393V2.552H325.837L322.345 6.926V7.88H323.245C325.585 7.88 326.647 8.87 326.647 10.382C326.647 11.948 325.495 12.92 323.407 12.92C321.769 12.92 320.311 12.308 319.501 11.462L318.871 12.488C319.843 13.478 321.589 14.108 323.407 14.108C326.449 14.108 327.979 12.488 327.979 10.382C327.979 8.366 326.629 6.944 323.929 6.8ZM3.78 29.592V25.146C3.78 24.228 4.212 23.706 5.148 23.706H5.634V22.644H4.968C3.348 22.644 2.502 23.436 2.502 25.038V29.61C2.502 30.258 2.214 30.528 1.692 30.528H1.08V31.608H1.692C2.214 31.608 2.502 31.878 2.502 32.526V37.098C2.502 38.7 3.348 39.492 4.968 39.492H5.634V38.43H5.148C4.212 38.43 3.78 37.908 3.78 36.99V32.544C3.78 31.644 3.51 31.266 2.934 31.068C3.51 30.87 3.78 30.492 3.78 29.592ZM25.5038 48.46C23.9378 48.46 22.6238 49.144 21.8498 50.404V48.532H20.6258V61.492H21.9038V56.218C22.6958 57.442 23.9918 58.09 25.5038 58.09C28.2038 58.09 30.2198 56.146 30.2198 53.266C30.2198 50.404 28.2038 48.46 25.5038 48.46ZM25.4138 56.956C23.3978 56.956 21.8858 55.48 21.8858 53.266C21.8858 51.07 23.3978 49.576 25.4138 49.576C27.4118 49.576 28.9418 51.07 28.9418 53.266C28.9418 55.48 27.4118 56.956 25.4138 56.956ZM34.049 50.386V48.532H32.825V58H34.103V53.176C34.103 50.944 35.309 49.684 37.289 49.684C37.379 49.684 37.487 49.702 37.595 49.702V48.46C35.849 48.46 34.643 49.126 34.049 50.386ZM43.6911 58.09C46.4631 58.09 48.4971 56.074 48.4971 53.266C48.4971 50.458 46.4631 48.46 43.6911 48.46C40.9191 48.46 38.8671 50.458 38.8671 53.266C38.8671 56.074 40.9191 58.09 43.6911 58.09ZM43.6911 56.956C41.6751 56.956 40.1631 55.48 40.1631 53.266C40.1631 51.052 41.6751 49.576 43.6911 49.576C45.7071 49.576 47.2011 51.052 47.2011 53.266C47.2011 55.48 45.7071 56.956 43.6911 56.956ZM51.3222 47.362V48.532H49.6302V49.612H51.3222V58H52.6002V49.612H55.4802V48.532H52.5642V47.416C52.5642 46.246 53.1402 45.634 54.2382 45.634C54.7782 45.634 55.2822 45.796 55.6422 46.102L56.0742 45.148C55.6062 44.752 54.8862 44.554 54.1842 44.554C52.3302 44.554 51.3222 45.67 51.3222 47.362ZM59.2962 44.644C58.7742 44.644 58.3602 45.058 58.3602 45.544C58.3602 46.048 58.7742 46.462 59.2962 46.462C59.8362 46.462 60.2322 46.048 60.2322 45.526C60.2322 45.04 59.8182 44.644 59.2962 44.644ZM58.6482 58H59.9262V48.532H58.6482V58ZM63.4988 58H64.7768V44.644H63.4988V58ZM76.5948 53.266C76.5948 50.422 74.6688 48.46 72.0048 48.46C69.3408 48.46 67.3788 50.458 67.3788 53.266C67.3788 56.074 69.3948 58.09 72.3468 58.09C73.8408 58.09 75.1548 57.55 76.0008 56.542L75.2808 55.714C74.5608 56.542 73.5348 56.956 72.3828 56.956C70.3128 56.956 68.8008 55.642 68.6568 53.662H76.5768C76.5768 53.518 76.5948 53.374 76.5948 53.266ZM72.0048 49.558C73.8588 49.558 75.2088 50.854 75.3708 52.708H68.6568C68.8188 50.854 70.1688 49.558 72.0048 49.558ZM79.3221 50.422C79.8441 50.422 80.2941 49.99 80.2941 49.432C80.2941 48.874 79.8441 48.46 79.3221 48.46C78.8001 48.46 78.3681 48.874 78.3681 49.432C78.3681 49.99 78.8001 50.422 79.3221 50.422ZM79.3221 58.09C79.8441 58.09 80.2941 57.658 80.2941 57.1C80.2941 56.542 79.8441 56.128 79.3221 56.128C78.8001 56.128 78.3681 56.542 78.3681 57.1C78.3681 57.658 78.8001 58.09 79.3221 58.09ZM22.6238 73.592V69.146C22.6238 68.228 23.0558 67.706 23.9918 67.706H24.4778V66.644H23.8118C22.1918 66.644 21.3458 67.436 21.3458 69.038V73.61C21.3458 74.258 21.0578 74.528 20.5358 74.528H19.9238V75.608H20.5358C21.0578 75.608 21.3458 75.878 21.3458 76.526V81.098C21.3458 82.7 22.1918 83.492 23.8118 83.492H24.4778V82.43H23.9918C23.0558 82.43 22.6238 81.908 22.6238 80.99V76.544C22.6238 75.644 22.3538 75.266 21.7778 75.068C22.3538 74.87 22.6238 74.492 22.6238 73.592ZM44.2935 92.46C42.6555 92.46 41.3775 93.126 40.6935 94.278V92.532H39.4695V102H40.7475V97.032C40.7475 94.872 42.0255 93.612 44.0595 93.612C45.8595 93.612 46.9035 94.638 46.9035 96.636V102H48.1815V96.51C48.1815 93.792 46.5975 92.46 44.2935 92.46ZM54.9631 92.46C53.4691 92.46 52.0651 92.928 51.1111 93.738L51.6871 94.692C52.4611 94.008 53.6131 93.576 54.8371 93.576C56.6011 93.576 57.5191 94.458 57.5191 96.078V96.654H54.5131C51.7951 96.654 50.8591 97.878 50.8591 99.336C50.8591 100.974 52.1731 102.09 54.3151 102.09C55.8811 102.09 56.9971 101.496 57.5731 100.524V102H58.7971V96.132C58.7971 93.684 57.4111 92.46 54.9631 92.46ZM54.5131 101.082C53.0011 101.082 52.1191 100.398 52.1191 99.3C52.1191 98.328 52.7131 97.608 54.5491 97.608H57.5191V99.156C57.0151 100.398 55.9531 101.082 54.5131 101.082ZM74.0763 92.46C72.3663 92.46 71.0163 93.234 70.3323 94.458C69.7563 93.126 68.5323 92.46 66.9663 92.46C65.3823 92.46 64.1583 93.126 63.4923 94.26V92.532H62.2683V102H63.5463V97.032C63.5463 94.872 64.7883 93.612 66.7143 93.612C68.4423 93.612 69.4503 94.638 69.4503 96.636V102H70.7283V97.032C70.7283 94.872 71.9523 93.612 73.8963 93.612C75.6063 93.612 76.6143 94.638 76.6143 96.636V102H77.8923V96.51C77.8923 93.792 76.3803 92.46 74.0763 92.46ZM89.6553 97.266C89.6553 94.422 87.7293 92.46 85.0653 92.46C82.4013 92.46 80.4393 94.458 80.4393 97.266C80.4393 100.074 82.4553 102.09 85.4073 102.09C86.9013 102.09 88.2153 101.55 89.0613 100.542L88.3413 99.714C87.6213 100.542 86.5953 100.956 85.4433 100.956C83.3733 100.956 81.8613 99.642 81.7173 97.662H89.6373C89.6373 97.518 89.6553 97.374 89.6553 97.266ZM85.0653 93.558C86.9193 93.558 88.2693 94.854 88.4313 96.708H81.7173C81.8793 94.854 83.2293 93.558 85.0653 93.558ZM93.8433 98.22H95.1753C95.1753 95.646 98.4693 95.502 98.4693 92.424C98.4693 90.498 96.8493 89.292 94.3293 89.292C92.3133 89.292 90.8193 89.976 89.8473 91.164L90.8013 91.884C91.5933 90.93 92.7093 90.426 94.2393 90.426C96.0753 90.426 97.1373 91.326 97.1373 92.622C97.1373 94.98 93.8433 95.25 93.8433 98.22ZM94.5093 102.09C95.0493 102.09 95.4633 101.658 95.4633 101.154C95.4633 100.632 95.0493 100.236 94.5093 100.236C93.9873 100.236 93.5733 100.632 93.5733 101.154C93.5733 101.658 93.9873 102.09 94.5093 102.09ZM101.734 94.422C102.256 94.422 102.706 93.99 102.706 93.432C102.706 92.874 102.256 92.46 101.734 92.46C101.212 92.46 100.78 92.874 100.78 93.432C100.78 93.99 101.212 94.422 101.734 94.422ZM101.734 102.09C102.256 102.09 102.706 101.658 102.706 101.1C102.706 100.542 102.256 100.128 101.734 100.128C101.212 100.128 100.78 100.542 100.78 101.1C100.78 101.658 101.212 102.09 101.734 102.09ZM112.672 102.09C115.138 102.09 116.578 101.028 116.578 99.39C116.578 95.754 110.44 97.68 110.44 95.124C110.44 94.224 111.196 93.558 112.906 93.558C113.878 93.558 114.868 93.792 115.696 94.368L116.254 93.342C115.462 92.802 114.13 92.46 112.906 92.46C110.494 92.46 109.162 93.612 109.162 95.16C109.162 98.904 115.3 96.96 115.3 99.426C115.3 100.362 114.562 100.974 112.762 100.974C111.43 100.974 110.152 100.506 109.396 99.912L108.82 100.92C109.594 101.586 111.106 102.09 112.672 102.09ZM123.476 100.506C123.116 100.83 122.594 100.992 122.072 100.992C121.01 100.992 120.434 100.38 120.434 99.264V93.612H123.314V92.532H120.434V90.462H119.156V92.532H117.464V93.612H119.156V99.336C119.156 101.082 120.146 102.09 121.928 102.09C122.666 102.09 123.422 101.874 123.926 101.424L123.476 100.506ZM127.477 94.386V92.532H126.253V102H127.531V97.176C127.531 94.944 128.737 93.684 130.717 93.684C130.807 93.684 130.915 93.702 131.023 93.702V92.46C129.277 92.46 128.071 93.126 127.477 94.386ZM133.985 90.462C134.525 90.462 134.921 90.048 134.921 89.526C134.921 89.04 134.507 88.644 133.985 88.644C133.463 88.644 133.049 89.058 133.049 89.544C133.049 90.048 133.463 90.462 133.985 90.462ZM133.337 102H134.615V92.532H133.337V102ZM142.995 92.46C141.357 92.46 140.079 93.126 139.395 94.278V92.532H138.171V102H139.449V97.032C139.449 94.872 140.727 93.612 142.761 93.612C144.561 93.612 145.605 94.638 145.605 96.636V102H146.883V96.51C146.883 93.792 145.299 92.46 142.995 92.46ZM157.929 92.532V94.35C157.137 93.108 155.769 92.46 154.185 92.46C151.485 92.46 149.433 94.314 149.433 97.032C149.433 99.75 151.485 101.64 154.185 101.64C155.733 101.64 157.083 101.01 157.875 99.804V101.01C157.875 103.35 156.777 104.448 154.383 104.448C152.925 104.448 151.557 103.962 150.657 103.152L150.009 104.124C150.999 105.06 152.691 105.582 154.419 105.582C157.551 105.582 159.153 104.106 159.153 100.848V92.532H157.929ZM154.311 100.506C152.223 100.506 150.729 99.084 150.729 97.032C150.729 94.98 152.223 93.576 154.311 93.576C156.399 93.576 157.911 94.98 157.911 97.032C157.911 99.084 156.399 100.506 154.311 100.506ZM162.853 94.422C163.375 94.422 163.825 93.99 163.825 93.432C163.825 92.874 163.375 92.46 162.853 92.46C162.331 92.46 161.899 92.874 161.899 93.432C161.899 93.99 162.331 94.422 162.853 94.422ZM162.871 100.128C162.331 100.128 161.917 100.542 161.917 101.1C161.917 101.568 162.187 101.91 162.565 102.018L161.953 104.628H162.817L163.573 102.144C163.753 101.64 163.825 101.406 163.825 101.1C163.825 100.56 163.429 100.128 162.871 100.128ZM42.7815 114.46C41.2875 114.46 39.8835 114.928 38.9295 115.738L39.5055 116.692C40.2795 116.008 41.4315 115.576 42.6555 115.576C44.4195 115.576 45.3375 116.458 45.3375 118.078V118.654H42.3315C39.6135 118.654 38.6775 119.878 38.6775 121.336C38.6775 122.974 39.9915 124.09 42.1335 124.09C43.6995 124.09 44.8155 123.496 45.3915 122.524V124H46.6155V118.132C46.6155 115.684 45.2295 114.46 42.7815 114.46ZM42.3315 123.082C40.8195 123.082 39.9375 122.398 39.9375 121.3C39.9375 120.328 40.5315 119.608 42.3675 119.608H45.3375V121.156C44.8335 122.398 43.7715 123.082 42.3315 123.082ZM56.6069 114.532L53.0249 122.596L49.4789 114.532H48.1469L52.3409 124H53.6549L57.8669 114.532H56.6069ZM62.6975 114.46C61.2035 114.46 59.7995 114.928 58.8455 115.738L59.4215 116.692C60.1955 116.008 61.3475 115.576 62.5715 115.576C64.3355 115.576 65.2535 116.458 65.2535 118.078V118.654H62.2475C59.5295 118.654 58.5935 119.878 58.5935 121.336C58.5935 122.974 59.9075 124.09 62.0495 124.09C63.6155 124.09 64.7315 123.496 65.3075 122.524V124H66.5315V118.132C66.5315 115.684 65.1455 114.46 62.6975 114.46ZM62.2475 123.082C60.7355 123.082 59.8535 122.398 59.8535 121.3C59.8535 120.328 60.4475 119.608 62.2835 119.608H65.2535V121.156C64.7495 122.398 63.6875 123.082 62.2475 123.082ZM74.5387 122.506C74.1787 122.83 73.6567 122.992 73.1347 122.992C72.0727 122.992 71.4967 122.38 71.4967 121.264V115.612H74.3767V114.532H71.4967V112.462H70.2187V114.532H68.5267V115.612H70.2187V121.336C70.2187 123.082 71.2087 124.09 72.9907 124.09C73.7287 124.09 74.4847 123.874 74.9887 123.424L74.5387 122.506ZM80.6272 114.46C79.1332 114.46 77.7292 114.928 76.7752 115.738L77.3512 116.692C78.1252 116.008 79.2772 115.576 80.5012 115.576C82.2652 115.576 83.1832 116.458 83.1832 118.078V118.654H80.1772C77.4592 118.654 76.5232 119.878 76.5232 121.336C76.5232 122.974 77.8372 124.09 79.9792 124.09C81.5452 124.09 82.6612 123.496 83.2372 122.524V124H84.4612V118.132C84.4612 115.684 83.0752 114.46 80.6272 114.46ZM80.1772 123.082C78.6652 123.082 77.7832 122.398 77.7832 121.3C77.7832 120.328 78.3772 119.608 80.2132 119.608H83.1832V121.156C82.6792 122.398 81.6172 123.082 80.1772 123.082ZM89.1564 116.386V114.532H87.9324V124H89.2104V119.176C89.2104 116.944 90.4164 115.684 92.3964 115.684C92.4864 115.684 92.5944 115.702 92.7024 115.702V114.46C90.9564 114.46 89.7504 115.126 89.1564 116.386ZM97.6929 120.22H99.0249C99.0249 117.646 102.319 117.502 102.319 114.424C102.319 112.498 100.699 111.292 98.1789 111.292C96.1629 111.292 94.6689 111.976 93.6969 113.164L94.6509 113.884C95.4429 112.93 96.5589 112.426 98.0889 112.426C99.9249 112.426 100.987 113.326 100.987 114.622C100.987 116.98 97.6929 117.25 97.6929 120.22ZM98.3589 124.09C98.8989 124.09 99.3129 123.658 99.3129 123.154C99.3129 122.632 98.8989 122.236 98.3589 122.236C97.8369 122.236 97.4229 122.632 97.4229 123.154C97.4229 123.658 97.8369 124.09 98.3589 124.09ZM105.584 116.422C106.106 116.422 106.556 115.99 106.556 115.432C106.556 114.874 106.106 114.46 105.584 114.46C105.062 114.46 104.63 114.874 104.63 115.432C104.63 115.99 105.062 116.422 105.584 116.422ZM105.584 124.09C106.106 124.09 106.556 123.658 106.556 123.1C106.556 122.542 106.106 122.128 105.584 122.128C105.062 122.128 104.63 122.542 104.63 123.1C104.63 123.658 105.062 124.09 105.584 124.09ZM116.521 124.09C118.987 124.09 120.427 123.028 120.427 121.39C120.427 117.754 114.289 119.68 114.289 117.124C114.289 116.224 115.045 115.558 116.755 115.558C117.727 115.558 118.717 115.792 119.545 116.368L120.103 115.342C119.311 114.802 117.979 114.46 116.755 114.46C114.343 114.46 113.011 115.612 113.011 117.16C113.011 120.904 119.149 118.96 119.149 121.426C119.149 122.362 118.411 122.974 116.611 122.974C115.279 122.974 114.001 122.506 113.245 121.912L112.669 122.92C113.443 123.586 114.955 124.09 116.521 124.09ZM127.326 122.506C126.966 122.83 126.444 122.992 125.922 122.992C124.86 122.992 124.284 122.38 124.284 121.264V115.612H127.164V114.532H124.284V112.462H123.006V114.532H121.314V115.612H123.006V121.336C123.006 123.082 123.996 124.09 125.778 124.09C126.516 124.09 127.272 123.874 127.776 123.424L127.326 122.506ZM131.326 116.386V114.532H130.102V124H131.38V119.176C131.38 116.944 132.586 115.684 134.566 115.684C134.656 115.684 134.764 115.702 134.872 115.702V114.46C133.126 114.46 131.92 115.126 131.326 116.386ZM137.834 112.462C138.374 112.462 138.77 112.048 138.77 111.526C138.77 111.04 138.356 110.644 137.834 110.644C137.312 110.644 136.898 111.058 136.898 111.544C136.898 112.048 137.312 112.462 137.834 112.462ZM137.186 124H138.464V114.532H137.186V124ZM146.844 114.46C145.206 114.46 143.928 115.126 143.244 116.278V114.532H142.02V124H143.298V119.032C143.298 116.872 144.576 115.612 146.61 115.612C148.41 115.612 149.454 116.638 149.454 118.636V124H150.732V118.51C150.732 115.792 149.148 114.46 146.844 114.46ZM161.779 114.532V116.35C160.987 115.108 159.619 114.46 158.035 114.46C155.335 114.46 153.283 116.314 153.283 119.032C153.283 121.75 155.335 123.64 158.035 123.64C159.583 123.64 160.933 123.01 161.725 121.804V123.01C161.725 125.35 160.627 126.448 158.233 126.448C156.775 126.448 155.407 125.962 154.507 125.152L153.859 126.124C154.849 127.06 156.541 127.582 158.269 127.582C161.401 127.582 163.003 126.106 163.003 122.848V114.532H161.779ZM158.161 122.506C156.073 122.506 154.579 121.084 154.579 119.032C154.579 116.98 156.073 115.576 158.161 115.576C160.249 115.576 161.761 116.98 161.761 119.032C161.761 121.084 160.249 122.506 158.161 122.506ZM166.703 116.422C167.225 116.422 167.675 115.99 167.675 115.432C167.675 114.874 167.225 114.46 166.703 114.46C166.181 114.46 165.749 114.874 165.749 115.432C165.749 115.99 166.181 116.422 166.703 116.422ZM166.721 122.128C166.181 122.128 165.767 122.542 165.767 123.1C165.767 123.568 166.037 123.91 166.415 124.018L165.803 126.628H166.667L167.423 124.144C167.603 123.64 167.675 123.406 167.675 123.1C167.675 122.56 167.279 122.128 166.721 122.128ZM44.3475 136.46C42.8355 136.46 41.5395 137.108 40.7475 138.332V132.644H39.4695V146H40.6935V144.128C41.4675 145.406 42.7815 146.09 44.3475 146.09C47.0475 146.09 49.0635 144.128 49.0635 141.266C49.0635 138.404 47.0475 136.46 44.3475 136.46ZM44.2575 144.956C42.2415 144.956 40.7295 143.48 40.7295 141.266C40.7295 139.052 42.2415 137.576 44.2575 137.576C46.2555 137.576 47.7855 139.052 47.7855 141.266C47.7855 143.48 46.2555 144.956 44.2575 144.956ZM52.3167 134.462C52.8567 134.462 53.2527 134.048 53.2527 133.526C53.2527 133.04 52.8387 132.644 52.3167 132.644C51.7947 132.644 51.3807 133.058 51.3807 133.544C51.3807 134.048 51.7947 134.462 52.3167 134.462ZM51.6687 146H52.9467V136.532H51.6687V146ZM60.3727 146.09C63.1447 146.09 65.1787 144.074 65.1787 141.266C65.1787 138.458 63.1447 136.46 60.3727 136.46C57.6007 136.46 55.5487 138.458 55.5487 141.266C55.5487 144.074 57.6007 146.09 60.3727 146.09ZM60.3727 144.956C58.3567 144.956 56.8447 143.48 56.8447 141.266C56.8447 139.052 58.3567 137.576 60.3727 137.576C62.3887 137.576 63.8827 139.052 63.8827 141.266C63.8827 143.48 62.3887 144.956 60.3727 144.956ZM69.3745 142.22H70.7065C70.7065 139.646 74.0005 139.502 74.0005 136.424C74.0005 134.498 72.3805 133.292 69.8605 133.292C67.8445 133.292 66.3505 133.976 65.3785 135.164L66.3325 135.884C67.1245 134.93 68.2405 134.426 69.7705 134.426C71.6065 134.426 72.6685 135.326 72.6685 136.622C72.6685 138.98 69.3745 139.25 69.3745 142.22ZM70.0405 146.09C70.5805 146.09 70.9945 145.658 70.9945 145.154C70.9945 144.632 70.5805 144.236 70.0405 144.236C69.5185 144.236 69.1045 144.632 69.1045 145.154C69.1045 145.658 69.5185 146.09 70.0405 146.09ZM77.2654 138.422C77.7874 138.422 78.2374 137.99 78.2374 137.432C78.2374 136.874 77.7874 136.46 77.2654 136.46C76.7434 136.46 76.3114 136.874 76.3114 137.432C76.3114 137.99 76.7434 138.422 77.2654 138.422ZM77.2654 146.09C77.7874 146.09 78.2374 145.658 78.2374 145.1C78.2374 144.542 77.7874 144.128 77.2654 144.128C76.7434 144.128 76.3114 144.542 76.3114 145.1C76.3114 145.658 76.7434 146.09 77.2654 146.09ZM88.2028 146.09C90.6688 146.09 92.1088 145.028 92.1088 143.39C92.1088 139.754 85.9708 141.68 85.9708 139.124C85.9708 138.224 86.7268 137.558 88.4368 137.558C89.4088 137.558 90.3988 137.792 91.2268 138.368L91.7848 137.342C90.9928 136.802 89.6608 136.46 88.4368 136.46C86.0248 136.46 84.6928 137.612 84.6928 139.16C84.6928 142.904 90.8308 140.96 90.8308 143.426C90.8308 144.362 90.0928 144.974 88.2928 144.974C86.9608 144.974 85.6828 144.506 84.9268 143.912L84.3508 144.92C85.1248 145.586 86.6368 146.09 88.2028 146.09ZM99.0075 144.506C98.6475 144.83 98.1255 144.992 97.6035 144.992C96.5415 144.992 95.9655 144.38 95.9655 143.264V137.612H98.8455V136.532H95.9655V134.462H94.6875V136.532H92.9955V137.612H94.6875V143.336C94.6875 145.082 95.6775 146.09 97.4595 146.09C98.1975 146.09 98.9535 145.874 99.4575 145.424L99.0075 144.506ZM103.008 138.386V136.532H101.784V146H103.062V141.176C103.062 138.944 104.268 137.684 106.248 137.684C106.338 137.684 106.446 137.702 106.554 137.702V136.46C104.808 136.46 103.602 137.126 103.008 138.386ZM109.516 134.462C110.056 134.462 110.452 134.048 110.452 133.526C110.452 133.04 110.038 132.644 109.516 132.644C108.994 132.644 108.58 133.058 108.58 133.544C108.58 134.048 108.994 134.462 109.516 134.462ZM108.868 146H110.146V136.532H108.868V146ZM118.526 136.46C116.888 136.46 115.61 137.126 114.926 138.278V136.532H113.702V146H114.98V141.032C114.98 138.872 116.258 137.612 118.292 137.612C120.092 137.612 121.136 138.638 121.136 140.636V146H122.414V140.51C122.414 137.792 120.83 136.46 118.526 136.46ZM133.461 136.532V138.35C132.669 137.108 131.301 136.46 129.717 136.46C127.017 136.46 124.965 138.314 124.965 141.032C124.965 143.75 127.017 145.64 129.717 145.64C131.265 145.64 132.615 145.01 133.407 143.804V145.01C133.407 147.35 132.309 148.448 129.915 148.448C128.457 148.448 127.089 147.962 126.189 147.152L125.541 148.124C126.531 149.06 128.223 149.582 129.951 149.582C133.083 149.582 134.685 148.106 134.685 144.848V136.532H133.461ZM129.843 144.506C127.755 144.506 126.261 143.084 126.261 141.032C126.261 138.98 127.755 137.576 129.843 137.576C131.931 137.576 133.443 138.98 133.443 141.032C133.443 143.084 131.931 144.506 129.843 144.506ZM138.385 138.422C138.907 138.422 139.357 137.99 139.357 137.432C139.357 136.874 138.907 136.46 138.385 136.46C137.863 136.46 137.431 136.874 137.431 137.432C137.431 137.99 137.863 138.422 138.385 138.422ZM138.403 144.128C137.863 144.128 137.449 144.542 137.449 145.1C137.449 145.568 137.719 145.91 138.097 146.018L137.485 148.628H138.349L139.105 146.144C139.285 145.64 139.357 145.406 139.357 145.1C139.357 144.56 138.961 144.128 138.403 144.128ZM23.1638 162.528C22.6598 162.528 22.3538 162.258 22.3538 161.61V157.038C22.3538 155.436 21.5078 154.644 19.9058 154.644H19.2218V155.706H19.7078C20.6438 155.706 21.0758 156.228 21.0758 157.146V161.592C21.0758 162.492 21.3458 162.87 21.9218 163.068C21.3458 163.266 21.0758 163.644 21.0758 164.544V168.99C21.0758 169.908 20.6438 170.43 19.7078 170.43H19.2218V171.492H19.9058C21.5078 171.492 22.3538 170.7 22.3538 169.098V164.526C22.3538 163.878 22.6598 163.608 23.1638 163.608H23.7758V162.528H23.1638ZM26.7635 160.422C27.2855 160.422 27.7355 159.99 27.7355 159.432C27.7355 158.874 27.2855 158.46 26.7635 158.46C26.2415 158.46 25.8095 158.874 25.8095 159.432C25.8095 159.99 26.2415 160.422 26.7635 160.422ZM26.7815 166.128C26.2415 166.128 25.8275 166.542 25.8275 167.1C25.8275 167.568 26.0975 167.91 26.4755 168.018L25.8635 170.628H26.7275L27.4835 168.144C27.6635 167.64 27.7355 167.406 27.7355 167.1C27.7355 166.56 27.3395 166.128 26.7815 166.128ZM20.6258 212H21.9038V198.644H20.6258V212ZM26.1077 200.462C26.6477 200.462 27.0437 200.048 27.0437 199.526C27.0437 199.04 26.6297 198.644 26.1077 198.644C25.5857 198.644 25.1717 199.058 25.1717 199.544C25.1717 200.048 25.5857 200.462 26.1077 200.462ZM25.4597 212H26.7377V202.532H25.4597V212ZM35.1177 202.46C33.4797 202.46 32.2017 203.126 31.5177 204.278V202.532H30.2937V212H31.5717V207.032C31.5717 204.872 32.8497 203.612 34.8837 203.612C36.6837 203.612 37.7277 204.638 37.7277 206.636V212H39.0057V206.51C39.0057 203.792 37.4217 202.46 35.1177 202.46ZM49.8014 212H51.3674L46.9394 206.402L50.9894 202.532H49.4054L43.7534 207.698V198.644H42.4754V212H43.7534V209.3L45.9854 207.248L49.8014 212ZM55.5427 212.09C58.0087 212.09 59.4487 211.028 59.4487 209.39C59.4487 205.754 53.3107 207.68 53.3107 205.124C53.3107 204.224 54.0667 203.558 55.7767 203.558C56.7487 203.558 57.7387 203.792 58.5667 204.368L59.1247 203.342C58.3327 202.802 57.0007 202.46 55.7767 202.46C53.3647 202.46 52.0327 203.612 52.0327 205.16C52.0327 208.904 58.1707 206.96 58.1707 209.426C58.1707 210.362 57.4327 210.974 55.6327 210.974C54.3007 210.974 53.0227 210.506 52.2667 209.912L51.6907 210.92C52.4647 211.586 53.9767 212.09 55.5427 212.09ZM63.9429 208.22H65.2749C65.2749 205.646 68.5689 205.502 68.5689 202.424C68.5689 200.498 66.9489 199.292 64.4289 199.292C62.4129 199.292 60.9189 199.976 59.9469 201.164L60.9009 201.884C61.6929 200.93 62.8089 200.426 64.3389 200.426C66.1749 200.426 67.2369 201.326 67.2369 202.622C67.2369 204.98 63.9429 205.25 63.9429 208.22ZM64.6089 212.09C65.1489 212.09 65.5629 211.658 65.5629 211.154C65.5629 210.632 65.1489 210.236 64.6089 210.236C64.0869 210.236 63.6729 210.632 63.6729 211.154C63.6729 211.658 64.0869 212.09 64.6089 212.09ZM71.8338 204.422C72.3558 204.422 72.8058 203.99 72.8058 203.432C72.8058 202.874 72.3558 202.46 71.8338 202.46C71.3118 202.46 70.8798 202.874 70.8798 203.432C70.8798 203.99 71.3118 204.422 71.8338 204.422ZM71.8338 212.09C72.3558 212.09 72.8058 211.658 72.8058 211.1C72.8058 210.542 72.3558 210.128 71.8338 210.128C71.3118 210.128 70.8798 210.542 70.8798 211.1C70.8798 211.658 71.3118 212.09 71.8338 212.09ZM22.6238 227.592V223.146C22.6238 222.228 23.0558 221.706 23.9918 221.706H24.4778V220.644H23.8118C22.1918 220.644 21.3458 221.436 21.3458 223.038V227.61C21.3458 228.258 21.0578 228.528 20.5358 228.528H19.9238V229.608H20.5358C21.0578 229.608 21.3458 229.878 21.3458 230.526V235.098C21.3458 236.7 22.1918 237.492 23.8118 237.492H24.4778V236.43H23.9918C23.0558 236.43 22.6238 235.908 22.6238 234.99V230.544C22.6238 229.644 22.3538 229.266 21.7778 229.068C22.3538 228.87 22.6238 228.492 22.6238 227.592ZM40.1175 244.462C40.6575 244.462 41.0535 244.048 41.0535 243.526C41.0535 243.04 40.6395 242.644 40.1175 242.644C39.5955 242.644 39.1815 243.058 39.1815 243.544C39.1815 244.048 39.5955 244.462 40.1175 244.462ZM39.4695 256H40.7475V246.532H39.4695V256ZM51.6655 242.644V248.332C50.8735 247.108 49.5775 246.46 48.0655 246.46C45.3655 246.46 43.3495 248.404 43.3495 251.266C43.3495 254.128 45.3655 256.09 48.0655 256.09C49.6315 256.09 50.9455 255.406 51.7195 254.128V256H52.9435V242.644H51.6655ZM48.1735 254.956C46.1575 254.956 44.6455 253.48 44.6455 251.266C44.6455 249.052 46.1575 247.576 48.1735 247.576C50.1715 247.576 51.6835 249.052 51.6835 251.266C51.6835 253.48 50.1715 254.956 48.1735 254.956ZM56.6287 248.422C57.1507 248.422 57.6007 247.99 57.6007 247.432C57.6007 246.874 57.1507 246.46 56.6287 246.46C56.1067 246.46 55.6747 246.874 55.6747 247.432C55.6747 247.99 56.1067 248.422 56.6287 248.422ZM56.6287 256.09C57.1507 256.09 57.6007 255.658 57.6007 255.1C57.6007 254.542 57.1507 254.128 56.6287 254.128C56.1067 254.128 55.6747 254.542 55.6747 255.1C55.6747 255.658 56.1067 256.09 56.6287 256.09ZM68.3401 246.46C66.8461 246.46 65.4421 246.928 64.4881 247.738L65.0641 248.692C65.8381 248.008 66.9901 247.576 68.2141 247.576C69.9781 247.576 70.8961 248.458 70.8961 250.078V250.654H67.8901C65.1721 250.654 64.2361 251.878 64.2361 253.336C64.2361 254.974 65.5501 256.09 67.6921 256.09C69.2581 256.09 70.3741 255.496 70.9501 254.524V256H72.1741V250.132C72.1741 247.684 70.7881 246.46 68.3401 246.46ZM67.8901 255.082C66.3781 255.082 65.4961 254.398 65.4961 253.3C65.4961 252.328 66.0901 251.608 67.9261 251.608H70.8961V253.156C70.3921 254.398 69.3301 255.082 67.8901 255.082ZM83.0424 242.644V248.332C82.2504 247.108 80.9544 246.46 79.4424 246.46C76.7424 246.46 74.7264 248.404 74.7264 251.266C74.7264 254.128 76.7424 256.09 79.4424 256.09C81.0084 256.09 82.3224 255.406 83.0964 254.128V256H84.3204V242.644H83.0424ZM79.5504 254.956C77.5344 254.956 76.0224 253.48 76.0224 251.266C76.0224 249.052 77.5344 247.576 79.5504 247.576C81.5484 247.576 83.0604 249.052 83.0604 251.266C83.0604 253.48 81.5484 254.956 79.5504 254.956ZM95.2417 242.644V248.332C94.4497 247.108 93.1537 246.46 91.6417 246.46C88.9417 246.46 86.9257 248.404 86.9257 251.266C86.9257 254.128 88.9417 256.09 91.6417 256.09C93.2077 256.09 94.5217 255.406 95.2957 254.128V256H96.5197V242.644H95.2417ZM91.7497 254.956C89.7337 254.956 88.2217 253.48 88.2217 251.266C88.2217 249.052 89.7337 247.576 91.7497 247.576C93.7477 247.576 95.2597 249.052 95.2597 251.266C95.2597 253.48 93.7477 254.956 91.7497 254.956ZM101.303 248.386V246.532H100.079V256H101.357V251.176C101.357 248.944 102.563 247.684 104.543 247.684C104.633 247.684 104.741 247.702 104.849 247.702V246.46C103.103 246.46 101.897 247.126 101.303 248.386ZM115.337 251.266C115.337 248.422 113.411 246.46 110.747 246.46C108.083 246.46 106.121 248.458 106.121 251.266C106.121 254.074 108.137 256.09 111.089 256.09C112.583 256.09 113.897 255.55 114.743 254.542L114.023 253.714C113.303 254.542 112.277 254.956 111.125 254.956C109.055 254.956 107.543 253.642 107.399 251.662H115.319C115.319 251.518 115.337 251.374 115.337 251.266ZM110.747 247.558C112.601 247.558 113.951 248.854 114.113 250.708H107.399C107.561 248.854 108.911 247.558 110.747 247.558ZM120.476 256.09C122.942 256.09 124.382 255.028 124.382 253.39C124.382 249.754 118.244 251.68 118.244 249.124C118.244 248.224 119 247.558 120.71 247.558C121.682 247.558 122.672 247.792 123.5 248.368L124.058 247.342C123.266 246.802 121.934 246.46 120.71 246.46C118.298 246.46 116.966 247.612 116.966 249.16C116.966 252.904 123.104 250.96 123.104 253.426C123.104 254.362 122.366 254.974 120.566 254.974C119.234 254.974 117.956 254.506 117.2 253.912L116.624 254.92C117.398 255.586 118.91 256.09 120.476 256.09ZM129.283 256.09C131.749 256.09 133.189 255.028 133.189 253.39C133.189 249.754 127.051 251.68 127.051 249.124C127.051 248.224 127.807 247.558 129.517 247.558C130.489 247.558 131.479 247.792 132.307 248.368L132.865 247.342C132.073 246.802 130.741 246.46 129.517 246.46C127.105 246.46 125.773 247.612 125.773 249.16C125.773 252.904 131.911 250.96 131.911 253.426C131.911 254.362 131.173 254.974 129.373 254.974C128.041 254.974 126.763 254.506 126.007 253.912L125.431 254.92C126.205 255.586 127.717 256.09 129.283 256.09ZM135.678 248.422C136.2 248.422 136.65 247.99 136.65 247.432C136.65 246.874 136.2 246.46 135.678 246.46C135.156 246.46 134.724 246.874 134.724 247.432C134.724 247.99 135.156 248.422 135.678 248.422ZM135.696 254.128C135.156 254.128 134.742 254.542 134.742 255.1C134.742 255.568 135.012 255.91 135.39 256.018L134.778 258.628H135.642L136.398 256.144C136.578 255.64 136.65 255.406 136.65 255.1C136.65 254.56 136.254 254.128 135.696 254.128ZM44.0055 276.506C43.6455 276.83 43.1235 276.992 42.6015 276.992C41.5395 276.992 40.9635 276.38 40.9635 275.264V269.612H43.8435V268.532H40.9635V266.462H39.6855V268.532H37.9935V269.612H39.6855V275.336C39.6855 277.082 40.6755 278.09 42.4575 278.09C43.1955 278.09 43.9515 277.874 44.4555 277.424L44.0055 276.506ZM53.3022 268.532L49.7382 276.578L46.1742 268.532H44.8422L49.0722 277.982L48.6582 278.9C48.1182 280.088 47.5422 280.484 46.6962 280.484C46.0122 280.484 45.4362 280.232 44.9682 279.764L44.3742 280.718C44.9502 281.294 45.7962 281.582 46.6782 281.582C48.0282 281.582 49.0362 280.988 49.8282 279.134L54.5622 268.532H53.3022ZM61.2401 268.46C59.6741 268.46 58.3601 269.144 57.5861 270.404V268.532H56.3621V281.492H57.6401V276.218C58.4321 277.442 59.7281 278.09 61.2401 278.09C63.9401 278.09 65.9561 276.146 65.9561 273.266C65.9561 270.404 63.9401 268.46 61.2401 268.46ZM61.1501 276.956C59.1341 276.956 57.6221 275.48 57.6221 273.266C57.6221 271.07 59.1341 269.576 61.1501 269.576C63.1481 269.576 64.6781 271.07 64.6781 273.266C64.6781 275.48 63.1481 276.956 61.1501 276.956ZM76.8233 273.266C76.8233 270.422 74.8973 268.46 72.2333 268.46C69.5693 268.46 67.6073 270.458 67.6073 273.266C67.6073 276.074 69.6233 278.09 72.5753 278.09C74.0693 278.09 75.3833 277.55 76.2293 276.542L75.5093 275.714C74.7893 276.542 73.7633 276.956 72.6113 276.956C70.5413 276.956 69.0293 275.642 68.8853 273.662H76.8053C76.8053 273.518 76.8233 273.374 76.8233 273.266ZM72.2333 269.558C74.0873 269.558 75.4373 270.854 75.5993 272.708H68.8853C69.0473 270.854 70.3973 269.558 72.2333 269.558ZM79.5506 270.422C80.0726 270.422 80.5226 269.99 80.5226 269.432C80.5226 268.874 80.0726 268.46 79.5506 268.46C79.0286 268.46 78.5966 268.874 78.5966 269.432C78.5966 269.99 79.0286 270.422 79.5506 270.422ZM79.5506 278.09C80.0726 278.09 80.5226 277.658 80.5226 277.1C80.5226 276.542 80.0726 276.128 79.5506 276.128C79.0286 276.128 78.5966 276.542 78.5966 277.1C78.5966 277.658 79.0286 278.09 79.5506 278.09ZM90.488 278.09C92.954 278.09 94.394 277.028 94.394 275.39C94.394 271.754 88.256 273.68 88.256 271.124C88.256 270.224 89.012 269.558 90.722 269.558C91.694 269.558 92.684 269.792 93.512 270.368L94.07 269.342C93.278 268.802 91.946 268.46 90.722 268.46C88.31 268.46 86.978 269.612 86.978 271.16C86.978 274.904 93.116 272.96 93.116 275.426C93.116 276.362 92.378 276.974 90.578 276.974C89.246 276.974 87.968 276.506 87.212 275.912L86.636 276.92C87.41 277.586 88.922 278.09 90.488 278.09ZM101.293 276.506C100.933 276.83 100.411 276.992 99.8886 276.992C98.8266 276.992 98.2506 276.38 98.2506 275.264V269.612H101.131V268.532H98.2506V266.462H96.9726V268.532H95.2806V269.612H96.9726V275.336C96.9726 277.082 97.9626 278.09 99.7446 278.09C100.483 278.09 101.239 277.874 101.743 277.424L101.293 276.506ZM105.293 270.386V268.532H104.069V278H105.347V273.176C105.347 270.944 106.553 269.684 108.533 269.684C108.623 269.684 108.731 269.702 108.839 269.702V268.46C107.093 268.46 105.887 269.126 105.293 270.386ZM111.801 266.462C112.341 266.462 112.737 266.048 112.737 265.526C112.737 265.04 112.323 264.644 111.801 264.644C111.279 264.644 110.865 265.058 110.865 265.544C110.865 266.048 111.279 266.462 111.801 266.462ZM111.153 278H112.431V268.532H111.153V278ZM120.811 268.46C119.173 268.46 117.895 269.126 117.211 270.278V268.532H115.987V278H117.265V273.032C117.265 270.872 118.543 269.612 120.577 269.612C122.377 269.612 123.421 270.638 123.421 272.636V278H124.699V272.51C124.699 269.792 123.115 268.46 120.811 268.46ZM135.746 268.532V270.35C134.954 269.108 133.586 268.46 132.002 268.46C129.302 268.46 127.25 270.314 127.25 273.032C127.25 275.75 129.302 277.64 132.002 277.64C133.55 277.64 134.9 277.01 135.692 275.804V277.01C135.692 279.35 134.594 280.448 132.2 280.448C130.742 280.448 129.374 279.962 128.474 279.152L127.826 280.124C128.816 281.06 130.508 281.582 132.236 281.582C135.368 281.582 136.97 280.106 136.97 276.848V268.532H135.746ZM132.128 276.506C130.04 276.506 128.546 275.084 128.546 273.032C128.546 270.98 130.04 269.576 132.128 269.576C134.216 269.576 135.728 270.98 135.728 273.032C135.728 275.084 134.216 276.506 132.128 276.506ZM140.67 270.422C141.192 270.422 141.642 269.99 141.642 269.432C141.642 268.874 141.192 268.46 140.67 268.46C140.148 268.46 139.716 268.874 139.716 269.432C139.716 269.99 140.148 270.422 140.67 270.422ZM140.688 276.128C140.148 276.128 139.734 276.542 139.734 277.1C139.734 277.568 140.004 277.91 140.382 278.018L139.77 280.628H140.634L141.39 278.144C141.57 277.64 141.642 277.406 141.642 277.1C141.642 276.56 141.246 276.128 140.688 276.128ZM44.0055 298.506C43.6455 298.83 43.1235 298.992 42.6015 298.992C41.5395 298.992 40.9635 298.38 40.9635 297.264V291.612H43.8435V290.532H40.9635V288.462H39.6855V290.532H37.9935V291.612H39.6855V297.336C39.6855 299.082 40.6755 300.09 42.4575 300.09C43.1955 300.09 43.9515 299.874 44.4555 299.424L44.0055 298.506ZM50.094 290.46C48.6 290.46 47.196 290.928 46.242 291.738L46.818 292.692C47.592 292.008 48.744 291.576 49.968 291.576C51.732 291.576 52.65 292.458 52.65 294.078V294.654H49.644C46.926 294.654 45.99 295.878 45.99 297.336C45.99 298.974 47.304 300.09 49.446 300.09C51.012 300.09 52.128 299.496 52.704 298.524V300H53.928V294.132C53.928 291.684 52.542 290.46 50.094 290.46ZM49.644 299.082C48.132 299.082 47.25 298.398 47.25 297.3C47.25 296.328 47.844 295.608 49.68 295.608H52.65V297.156C52.146 298.398 51.084 299.082 49.644 299.082ZM64.9763 290.532V292.35C64.1843 291.108 62.8163 290.46 61.2323 290.46C58.5323 290.46 56.4803 292.314 56.4803 295.032C56.4803 297.75 58.5323 299.64 61.2323 299.64C62.7803 299.64 64.1303 299.01 64.9223 297.804V299.01C64.9223 301.35 63.8243 302.448 61.4303 302.448C59.9723 302.448 58.6043 301.962 57.7043 301.152L57.0563 302.124C58.0463 303.06 59.7383 303.582 61.4663 303.582C64.5983 303.582 66.2003 302.106 66.2003 298.848V290.532H64.9763ZM61.3583 298.506C59.2703 298.506 57.7763 297.084 57.7763 295.032C57.7763 292.98 59.2703 291.576 61.3583 291.576C63.4463 291.576 64.9583 292.98 64.9583 295.032C64.9583 297.084 63.4463 298.506 61.3583 298.506ZM72.3122 300.09C74.7782 300.09 76.2182 299.028 76.2182 297.39C76.2182 293.754 70.0802 295.68 70.0802 293.124C70.0802 292.224 70.8362 291.558 72.5462 291.558C73.5182 291.558 74.5082 291.792 75.3362 292.368L75.8942 291.342C75.1022 290.802 73.7702 290.46 72.5462 290.46C70.1342 290.46 68.8022 291.612 68.8022 293.16C68.8022 296.904 74.9402 294.96 74.9402 297.426C74.9402 298.362 74.2022 298.974 72.4022 298.974C71.0702 298.974 69.7922 298.506 69.0362 297.912L68.4602 298.92C69.2342 299.586 70.7462 300.09 72.3122 300.09ZM80.7124 296.22H82.0444C82.0444 293.646 85.3384 293.502 85.3384 290.424C85.3384 288.498 83.7184 287.292 81.1984 287.292C79.1824 287.292 77.6884 287.976 76.7164 289.164L77.6704 289.884C78.4624 288.93 79.5784 288.426 81.1084 288.426C82.9444 288.426 84.0064 289.326 84.0064 290.622C84.0064 292.98 80.7124 293.25 80.7124 296.22ZM81.3784 300.09C81.9184 300.09 82.3324 299.658 82.3324 299.154C82.3324 298.632 81.9184 298.236 81.3784 298.236C80.8564 298.236 80.4424 298.632 80.4424 299.154C80.4424 299.658 80.8564 300.09 81.3784 300.09ZM88.6033 292.422C89.1253 292.422 89.5753 291.99 89.5753 291.432C89.5753 290.874 89.1253 290.46 88.6033 290.46C88.0813 290.46 87.6493 290.874 87.6493 291.432C87.6493 291.99 88.0813 292.422 88.6033 292.422ZM88.6033 300.09C89.1253 300.09 89.5753 299.658 89.5753 299.1C89.5753 298.542 89.1253 298.128 88.6033 298.128C88.0813 298.128 87.6493 298.542 87.6493 299.1C87.6493 299.658 88.0813 300.09 88.6033 300.09ZM99.5407 300.09C102.007 300.09 103.447 299.028 103.447 297.39C103.447 293.754 97.3087 295.68 97.3087 293.124C97.3087 292.224 98.0647 291.558 99.7747 291.558C100.747 291.558 101.737 291.792 102.565 292.368L103.123 291.342C102.331 290.802 100.999 290.46 99.7747 290.46C97.3627 290.46 96.0307 291.612 96.0307 293.16C96.0307 296.904 102.169 294.96 102.169 297.426C102.169 298.362 101.431 298.974 99.6307 298.974C98.2987 298.974 97.0207 298.506 96.2647 297.912L95.6887 298.92C96.4627 299.586 97.9747 300.09 99.5407 300.09ZM110.345 298.506C109.985 298.83 109.463 298.992 108.941 298.992C107.879 298.992 107.303 298.38 107.303 297.264V291.612H110.183V290.532H107.303V288.462H106.025V290.532H104.333V291.612H106.025V297.336C106.025 299.082 107.015 300.09 108.797 300.09C109.535 300.09 110.291 299.874 110.795 299.424L110.345 298.506ZM114.346 292.386V290.532H113.122V300H114.4V295.176C114.4 292.944 115.606 291.684 117.586 291.684C117.676 291.684 117.784 291.702 117.892 291.702V290.46C116.146 290.46 114.94 291.126 114.346 292.386ZM120.854 288.462C121.394 288.462 121.79 288.048 121.79 287.526C121.79 287.04 121.376 286.644 120.854 286.644C120.332 286.644 119.918 287.058 119.918 287.544C119.918 288.048 120.332 288.462 120.854 288.462ZM120.206 300H121.484V290.532H120.206V300ZM129.864 290.46C128.226 290.46 126.948 291.126 126.264 292.278V290.532H125.04V300H126.318V295.032C126.318 292.872 127.596 291.612 129.63 291.612C131.43 291.612 132.474 292.638 132.474 294.636V300H133.752V294.51C133.752 291.792 132.168 290.46 129.864 290.46ZM144.799 290.532V292.35C144.007 291.108 142.639 290.46 141.055 290.46C138.355 290.46 136.303 292.314 136.303 295.032C136.303 297.75 138.355 299.64 141.055 299.64C142.603 299.64 143.953 299.01 144.745 297.804V299.01C144.745 301.35 143.647 302.448 141.253 302.448C139.795 302.448 138.427 301.962 137.527 301.152L136.879 302.124C137.869 303.06 139.561 303.582 141.289 303.582C144.421 303.582 146.023 302.106 146.023 298.848V290.532H144.799ZM141.181 298.506C139.093 298.506 137.599 297.084 137.599 295.032C137.599 292.98 139.093 291.576 141.181 291.576C143.269 291.576 144.781 292.98 144.781 295.032C144.781 297.084 143.269 298.506 141.181 298.506ZM149.866 303.492H153.16V302.43H151.144V287.706H153.16V286.644H149.866V303.492ZM157.217 303.492V286.644H153.923V287.706H155.939V302.43H153.923V303.492H157.217ZM161.183 292.422C161.705 292.422 162.155 291.99 162.155 291.432C162.155 290.874 161.705 290.46 161.183 290.46C160.661 290.46 160.229 290.874 160.229 291.432C160.229 291.99 160.661 292.422 161.183 292.422ZM161.201 298.128C160.661 298.128 160.247 298.542 160.247 299.1C160.247 299.568 160.517 299.91 160.895 300.018L160.283 302.628H161.147L161.903 300.144C162.083 299.64 162.155 299.406 162.155 299.1C162.155 298.56 161.759 298.128 161.201 298.128ZM23.1638 316.528C22.6598 316.528 22.3538 316.258 22.3538 315.61V311.038C22.3538 309.436 21.5078 308.644 19.9058 308.644H19.2218V309.706H19.7078C20.6438 309.706 21.0758 310.228 21.0758 311.146V315.592C21.0758 316.492 21.3458 316.87 21.9218 317.068C21.3458 317.266 21.0758 317.644 21.0758 318.544V322.99C21.0758 323.908 20.6438 324.43 19.7078 324.43H19.2218V325.492H19.9058C21.5078 325.492 22.3538 324.7 22.3538 323.098V318.526C22.3538 317.878 22.6598 317.608 23.1638 317.608H23.7758V316.528H23.1638ZM26.9075 325.492H30.2015V324.43H28.1855V309.706H30.2015V308.644H26.9075V325.492ZM34.2579 325.492V308.644H30.9639V309.706H32.9799V324.43H30.9639V325.492H34.2579ZM38.2244 314.422C38.7464 314.422 39.1964 313.99 39.1964 313.432C39.1964 312.874 38.7464 312.46 38.2244 312.46C37.7024 312.46 37.2704 312.874 37.2704 313.432C37.2704 313.99 37.7024 314.422 38.2244 314.422ZM38.2424 320.128C37.7024 320.128 37.2884 320.542 37.2884 321.1C37.2884 321.568 37.5584 321.91 37.9364 322.018L37.3244 324.628H38.1884L38.9444 322.144C39.1244 321.64 39.1964 321.406 39.1964 321.1C39.1964 320.56 38.8004 320.128 38.2424 320.128ZM21.2738 354.462C21.8138 354.462 22.2098 354.048 22.2098 353.526C22.2098 353.04 21.7958 352.644 21.2738 352.644C20.7518 352.644 20.3378 353.058 20.3378 353.544C20.3378 354.048 20.7518 354.462 21.2738 354.462ZM20.6258 366H21.9038V356.532H20.6258V366ZM29.9957 364.506C29.6357 364.83 29.1137 364.992 28.5917 364.992C27.5297 364.992 26.9537 364.38 26.9537 363.264V357.612H29.8337V356.532H26.9537V354.462H25.6757V356.532H23.9837V357.612H25.6757V363.336C25.6757 365.082 26.6657 366.09 28.4477 366.09C29.1857 366.09 29.9417 365.874 30.4457 365.424L29.9957 364.506ZM40.7003 361.266C40.7003 358.422 38.7743 356.46 36.1103 356.46C33.4463 356.46 31.4843 358.458 31.4843 361.266C31.4843 364.074 33.5003 366.09 36.4523 366.09C37.9463 366.09 39.2603 365.55 40.1063 364.542L39.3863 363.714C38.6663 364.542 37.6403 364.956 36.4883 364.956C34.4183 364.956 32.9062 363.642 32.7623 361.662H40.6823C40.6823 361.518 40.7003 361.374 40.7003 361.266ZM36.1103 357.558C37.9643 357.558 39.3143 358.854 39.4763 360.708H32.7623C32.9243 358.854 34.2743 357.558 36.1103 357.558ZM55.1095 356.46C53.3995 356.46 52.0495 357.234 51.3655 358.458C50.7895 357.126 49.5655 356.46 47.9995 356.46C46.4155 356.46 45.1915 357.126 44.5255 358.26V356.532H43.3015V366H44.5795V361.032C44.5795 358.872 45.8215 357.612 47.7475 357.612C49.4755 357.612 50.4835 358.638 50.4835 360.636V366H51.7615V361.032C51.7615 358.872 52.9855 357.612 54.9295 357.612C56.6395 357.612 57.6475 358.638 57.6475 360.636V366H58.9255V360.51C58.9255 357.792 57.4135 356.46 55.1095 356.46ZM64.9294 366.09C67.3954 366.09 68.8354 365.028 68.8354 363.39C68.8354 359.754 62.6974 361.68 62.6974 359.124C62.6974 358.224 63.4534 357.558 65.1634 357.558C66.1354 357.558 67.1254 357.792 67.9534 358.368L68.5114 357.342C67.7194 356.802 66.3874 356.46 65.1634 356.46C62.7514 356.46 61.4194 357.612 61.4194 359.16C61.4194 362.904 67.5574 360.96 67.5574 363.426C67.5574 364.362 66.8194 364.974 65.0194 364.974C63.6874 364.974 62.4094 364.506 61.6534 363.912L61.0774 364.92C61.8514 365.586 63.3634 366.09 64.9294 366.09ZM71.324 358.422C71.846 358.422 72.296 357.99 72.296 357.432C72.296 356.874 71.846 356.46 71.324 356.46C70.802 356.46 70.37 356.874 70.37 357.432C70.37 357.99 70.802 358.422 71.324 358.422ZM71.324 366.09C71.846 366.09 72.296 365.658 72.296 365.1C72.296 364.542 71.846 364.128 71.324 364.128C70.802 364.128 70.37 364.542 70.37 365.1C70.37 365.658 70.802 366.09 71.324 366.09ZM90.0554 366L86.9774 361.68C88.8134 361.086 89.8574 359.7 89.8574 357.72C89.8574 355.02 87.9134 353.4 84.7094 353.4H79.9934V366H81.3254V362.004H84.7094C85.0694 362.004 85.3934 361.986 85.7174 361.95L88.5974 366H90.0554ZM84.6734 360.87H81.3254V354.552H84.6734C87.1934 354.552 88.5254 355.704 88.5254 357.72C88.5254 359.7 87.1934 360.87 84.6734 360.87ZM96.4752 366.108C99.6972 366.108 101.173 364.524 101.173 362.67C101.173 358.08 93.4152 360.168 93.4152 356.712C93.4152 355.452 94.4412 354.426 96.7452 354.426C97.8612 354.426 99.1212 354.768 100.201 355.47L100.651 354.408C99.6432 353.706 98.1672 353.292 96.7452 353.292C93.5412 353.292 92.1012 354.894 92.1012 356.748C92.1012 361.41 99.8592 359.286 99.8592 362.742C99.8592 363.984 98.8332 364.974 96.4752 364.974C94.8192 364.974 93.2172 364.326 92.3172 363.444L91.7952 364.47C92.7312 365.442 94.5852 366.108 96.4752 366.108ZM107.549 366.108C110.771 366.108 112.247 364.524 112.247 362.67C112.247 358.08 104.489 360.168 104.489 356.712C104.489 355.452 105.515 354.426 107.819 354.426C108.935 354.426 110.195 354.768 111.275 355.47L111.725 354.408C110.717 353.706 109.241 353.292 107.819 353.292C104.615 353.292 103.175 354.894 103.175 356.748C103.175 361.41 110.933 359.286 110.933 362.742C110.933 363.984 109.907 364.974 107.549 364.974C105.893 364.974 104.291 364.326 103.391 363.444L102.869 364.47C103.805 365.442 105.659 366.108 107.549 366.108ZM118.177 358.8L121.741 354.318V353.4H113.641V354.552H120.085L116.593 358.926V359.88H117.493C119.833 359.88 120.895 360.87 120.895 362.382C120.895 363.948 119.743 364.92 117.655 364.92C116.017 364.92 114.559 364.308 113.749 363.462L113.119 364.488C114.091 365.478 115.837 366.108 117.655 366.108C120.697 366.108 122.227 364.488 122.227 362.382C122.227 360.366 120.877 358.944 118.177 358.8ZM125.169 366H126.501V353.4H125.169V366ZM134.867 364.506C134.507 364.83 133.985 364.992 133.463 364.992C132.401 364.992 131.825 364.38 131.825 363.264V357.612H134.705V356.532H131.825V354.462H130.547V356.532H128.855V357.612H130.547V363.336C130.547 365.082 131.537 366.09 133.319 366.09C134.057 366.09 134.813 365.874 135.317 365.424L134.867 364.506ZM145.571 361.266C145.571 358.422 143.645 356.46 140.981 356.46C138.317 356.46 136.355 358.458 136.355 361.266C136.355 364.074 138.371 366.09 141.323 366.09C142.817 366.09 144.131 365.55 144.977 364.542L144.257 363.714C143.537 364.542 142.511 364.956 141.359 364.956C139.289 364.956 137.777 363.642 137.633 361.662H145.553C145.553 361.518 145.571 361.374 145.571 361.266ZM140.981 357.558C142.835 357.558 144.185 358.854 144.347 360.708H137.633C137.795 358.854 139.145 357.558 140.981 357.558ZM159.981 356.46C158.271 356.46 156.921 357.234 156.237 358.458C155.661 357.126 154.437 356.46 152.871 356.46C151.287 356.46 150.063 357.126 149.397 358.26V356.532H148.173V366H149.451V361.032C149.451 358.872 150.693 357.612 152.619 357.612C154.347 357.612 155.355 358.638 155.355 360.636V366H156.633V361.032C156.633 358.872 157.857 357.612 159.801 357.612C161.511 357.612 162.519 358.638 162.519 360.636V366H163.797V360.51C163.797 357.792 162.285 356.46 159.981 356.46ZM167.532 369.492H170.826V368.43H168.81V353.706H170.826V352.644H167.532V369.492ZM174.883 369.492V352.644H171.589V353.706H173.605V368.43H171.589V369.492H174.883ZM178.849 358.422C179.371 358.422 179.821 357.99 179.821 357.432C179.821 356.874 179.371 356.46 178.849 356.46C178.327 356.46 177.895 356.874 177.895 357.432C177.895 357.99 178.327 358.422 178.849 358.422ZM178.867 364.128C178.327 364.128 177.913 364.542 177.913 365.1C177.913 365.568 178.183 365.91 178.561 366.018L177.949 368.628H178.813L179.569 366.144C179.749 365.64 179.821 365.406 179.821 365.1C179.821 364.56 179.425 364.128 178.867 364.128ZM21.2738 376.462C21.8138 376.462 22.2098 376.048 22.2098 375.526C22.2098 375.04 21.7958 374.644 21.2738 374.644C20.7518 374.644 20.3378 375.058 20.3378 375.544C20.3378 376.048 20.7518 376.462 21.2738 376.462ZM20.6258 388H21.9038V378.532H20.6258V388ZM29.9957 386.506C29.6357 386.83 29.1137 386.992 28.5917 386.992C27.5297 386.992 26.9537 386.38 26.9537 385.264V379.612H29.8337V378.532H26.9537V376.462H25.6757V378.532H23.9837V379.612H25.6757V385.336C25.6757 387.082 26.6657 388.09 28.4477 388.09C29.1857 388.09 29.9417 387.874 30.4457 387.424L29.9957 386.506ZM40.7003 383.266C40.7003 380.422 38.7743 378.46 36.1103 378.46C33.4463 378.46 31.4843 380.458 31.4843 383.266C31.4843 386.074 33.5003 388.09 36.4523 388.09C37.9463 388.09 39.2603 387.55 40.1063 386.542L39.3863 385.714C38.6663 386.542 37.6403 386.956 36.4883 386.956C34.4183 386.956 32.9062 385.642 32.7623 383.662H40.6823C40.6823 383.518 40.7003 383.374 40.7003 383.266ZM36.1103 379.558C37.9643 379.558 39.3143 380.854 39.4763 382.708H32.7623C32.9243 380.854 34.2743 379.558 36.1103 379.558ZM55.1095 378.46C53.3995 378.46 52.0495 379.234 51.3655 380.458C50.7895 379.126 49.5655 378.46 47.9995 378.46C46.4155 378.46 45.1915 379.126 44.5255 380.26V378.532H43.3015V388H44.5795V383.032C44.5795 380.872 45.8215 379.612 47.7475 379.612C49.4755 379.612 50.4835 380.638 50.4835 382.636V388H51.7615V383.032C51.7615 380.872 52.9855 379.612 54.9295 379.612C56.6395 379.612 57.6475 380.638 57.6475 382.636V388H58.9255V382.51C58.9255 379.792 57.4135 378.46 55.1095 378.46ZM64.9294 388.09C67.3954 388.09 68.8354 387.028 68.8354 385.39C68.8354 381.754 62.6974 383.68 62.6974 381.124C62.6974 380.224 63.4534 379.558 65.1634 379.558C66.1354 379.558 67.1254 379.792 67.9534 380.368L68.5114 379.342C67.7194 378.802 66.3874 378.46 65.1634 378.46C62.7514 378.46 61.4194 379.612 61.4194 381.16C61.4194 384.904 67.5574 382.96 67.5574 385.426C67.5574 386.362 66.8194 386.974 65.0194 386.974C63.6874 386.974 62.4094 386.506 61.6534 385.912L61.0774 386.92C61.8514 387.586 63.3634 388.09 64.9294 388.09ZM69.416 388.864H78.416V388H69.416V388.864ZM85.022 378.46C83.384 378.46 82.106 379.126 81.422 380.278V378.532H80.198V388H81.476V383.032C81.476 380.872 82.754 379.612 84.788 379.612C86.588 379.612 87.632 380.638 87.632 382.636V388H88.91V382.51C88.91 379.792 87.326 378.46 85.022 378.46ZM100.677 383.266C100.677 380.422 98.7508 378.46 96.0868 378.46C93.4228 378.46 91.4608 380.458 91.4608 383.266C91.4608 386.074 93.4768 388.09 96.4288 388.09C97.9228 388.09 99.2368 387.55 100.083 386.542L99.3628 385.714C98.6428 386.542 97.6168 386.956 96.4648 386.956C94.3948 386.956 92.8828 385.642 92.7388 383.662H100.659C100.659 383.518 100.677 383.374 100.677 383.266ZM96.0868 379.558C97.9408 379.558 99.2908 380.854 99.4528 382.708H92.7388C92.9008 380.854 94.2508 379.558 96.0868 379.558ZM110.502 388L106.722 383.14L110.286 378.532H108.882L106.038 382.24L103.194 378.532H101.754L105.318 383.14L101.574 388H103.014L106.038 384.04L109.044 388H110.502ZM117.166 386.506C116.806 386.83 116.284 386.992 115.762 386.992C114.7 386.992 114.124 386.38 114.124 385.264V379.612H117.004V378.532H114.124V376.462H112.846V378.532H111.154V379.612H112.846V385.336C112.846 387.082 113.836 388.09 115.618 388.09C116.356 388.09 117.112 387.874 117.616 387.424L117.166 386.506ZM122.074 384.22H123.406C123.406 381.646 126.7 381.502 126.7 378.424C126.7 376.498 125.08 375.292 122.56 375.292C120.544 375.292 119.05 375.976 118.078 377.164L119.032 377.884C119.824 376.93 120.94 376.426 122.47 376.426C124.306 376.426 125.368 377.326 125.368 378.622C125.368 380.98 122.074 381.25 122.074 384.22ZM122.74 388.09C123.28 388.09 123.694 387.658 123.694 387.154C123.694 386.632 123.28 386.236 122.74 386.236C122.218 386.236 121.804 386.632 121.804 387.154C121.804 387.658 122.218 388.09 122.74 388.09ZM129.965 380.422C130.487 380.422 130.937 379.99 130.937 379.432C130.937 378.874 130.487 378.46 129.965 378.46C129.443 378.46 129.011 378.874 129.011 379.432C129.011 379.99 129.443 380.422 129.965 380.422ZM129.965 388.09C130.487 388.09 130.937 387.658 130.937 387.1C130.937 386.542 130.487 386.128 129.965 386.128C129.443 386.128 129.011 386.542 129.011 387.1C129.011 387.658 129.443 388.09 129.965 388.09ZM140.902 388.09C143.368 388.09 144.808 387.028 144.808 385.39C144.808 381.754 138.67 383.68 138.67 381.124C138.67 380.224 139.426 379.558 141.136 379.558C142.108 379.558 143.098 379.792 143.926 380.368L144.484 379.342C143.692 378.802 142.36 378.46 141.136 378.46C138.724 378.46 137.392 379.612 137.392 381.16C137.392 384.904 143.53 382.96 143.53 385.426C143.53 386.362 142.792 386.974 140.992 386.974C139.66 386.974 138.382 386.506 137.626 385.912L137.05 386.92C137.824 387.586 139.336 388.09 140.902 388.09ZM151.707 386.506C151.347 386.83 150.825 386.992 150.303 386.992C149.241 386.992 148.665 386.38 148.665 385.264V379.612H151.545V378.532H148.665V376.462H147.387V378.532H145.695V379.612H147.387V385.336C147.387 387.082 148.377 388.09 150.159 388.09C150.897 388.09 151.653 387.874 152.157 387.424L151.707 386.506ZM155.707 380.386V378.532H154.483V388H155.761V383.176C155.761 380.944 156.967 379.684 158.947 379.684C159.037 379.684 159.145 379.702 159.253 379.702V378.46C157.507 378.46 156.301 379.126 155.707 380.386ZM162.215 376.462C162.755 376.462 163.151 376.048 163.151 375.526C163.151 375.04 162.737 374.644 162.215 374.644C161.693 374.644 161.279 375.058 161.279 375.544C161.279 376.048 161.693 376.462 162.215 376.462ZM161.567 388H162.845V378.532H161.567V388ZM171.225 378.46C169.587 378.46 168.309 379.126 167.625 380.278V378.532H166.401V388H167.679V383.032C167.679 380.872 168.957 379.612 170.991 379.612C172.791 379.612 173.835 380.638 173.835 382.636V388H175.113V382.51C175.113 379.792 173.529 378.46 171.225 378.46ZM186.16 378.532V380.35C185.368 379.108 184 378.46 182.416 378.46C179.716 378.46 177.664 380.314 177.664 383.032C177.664 385.75 179.716 387.64 182.416 387.64C183.964 387.64 185.314 387.01 186.106 385.804V387.01C186.106 389.35 185.008 390.448 182.614 390.448C181.156 390.448 179.788 389.962 178.888 389.152L178.24 390.124C179.23 391.06 180.922 391.582 182.65 391.582C185.782 391.582 187.384 390.106 187.384 386.848V378.532H186.16ZM182.542 386.506C180.454 386.506 178.96 385.084 178.96 383.032C178.96 380.98 180.454 379.576 182.542 379.576C184.63 379.576 186.142 380.98 186.142 383.032C186.142 385.084 184.63 386.506 182.542 386.506ZM191.084 380.422C191.606 380.422 192.056 379.99 192.056 379.432C192.056 378.874 191.606 378.46 191.084 378.46C190.562 378.46 190.13 378.874 190.13 379.432C190.13 379.99 190.562 380.422 191.084 380.422ZM191.102 386.128C190.562 386.128 190.148 386.542 190.148 387.1C190.148 387.568 190.418 387.91 190.796 388.018L190.184 390.628H191.048L191.804 388.144C191.984 387.64 192.056 387.406 192.056 387.1C192.056 386.56 191.66 386.128 191.102 386.128ZM4.32 404.528C3.816 404.528 3.51 404.258 3.51 403.61V399.038C3.51 397.436 2.664 396.644 1.062 396.644H0.378V397.706H0.864C1.8 397.706 2.232 398.228 2.232 399.146V403.592C2.232 404.492 2.502 404.87 3.078 405.068C2.502 405.266 2.232 405.644 2.232 406.544V410.99C2.232 411.908 1.8 412.43 0.864 412.43H0.378V413.492H1.062C2.664 413.492 3.51 412.7 3.51 411.098V406.526C3.51 405.878 3.816 405.608 4.32 405.608H4.932V404.528H4.32Z" fill="black"/>
</svg>
