<svg width="50" height="50" viewBox="0 0 50 50" fill="none" xmlns="http://www.w3.org/2000/svg">
<circle cx="25" cy="25" r="24.5" stroke="black"/>
<path d="M15.3502 24.1723L28.453 18.6017C29.7465 18.0211 34.1346 16.1642 34.1346 16.1642C34.1346 16.1642 36.1582 15.3563 35.9901 17.3247C35.934 18.1375 35.4842 20.9806 35.0343 24.0566L33.6271 33.1666C33.6271 33.1666 33.5143 34.5014 32.557 34.7335C31.5997 34.9656 30.0259 33.9216 29.745 33.6895C29.52 33.516 25.5273 30.9042 24.0633 29.628C23.6695 29.2794 23.2204 28.5839 24.1202 27.7711C26.1438 25.8557 28.5627 23.4768 30.0244 21.9677C30.6992 21.2714 31.374 19.6466 28.5627 21.6199L20.6388 27.1318C20.6388 27.1318 19.7391 27.7125 18.0517 27.1897C16.3644 26.6668 14.3937 25.9713 14.3937 25.9713C14.3937 25.9713 13.0426 25.1007 15.3463 24.1731L15.3502 24.1723Z" fill="black"/>
</svg>
