<svg width="50" height="50" viewBox="0 0 50 50" fill="none" xmlns="http://www.w3.org/2000/svg">
<circle cx="25" cy="25" r="24.5" stroke="black"/>
<path d="M33.753 21.0405C33.7664 21.2158 33.7664 21.3928 33.7664 21.5697C33.7664 26.9866 29.2259 33.2322 20.9234 33.2322C18.4687 33.2354 16.0651 32.5963 14 31.3914C14.356 31.4298 14.7141 31.4494 15.0726 31.4498C17.1056 31.452 19.0802 30.8328 20.6785 29.6918C19.7364 29.6761 18.8234 29.3932 18.0673 28.8828C17.3111 28.3724 16.7496 27.66 16.4615 26.8454C17.1377 26.964 17.8349 26.9401 18.4994 26.7756C17.478 26.5881 16.5594 26.0857 15.8993 25.3534C15.2392 24.6212 14.8783 23.7042 14.8777 22.758V22.706C15.5056 23.0233 16.2081 23.1992 16.9263 23.219C15.9712 22.6389 15.2954 21.7501 15.0364 20.7335C14.7773 19.717 14.9546 18.649 15.532 17.7469C16.6653 19.0131 18.0791 20.0488 19.6818 20.7867C21.2844 21.5245 23.04 21.9481 24.8346 22.0299C24.6102 21.1513 24.7109 20.2299 25.1211 19.4084C25.5313 18.587 26.2282 17.9111 27.104 17.4855C27.9797 17.0599 28.9855 16.9082 29.9658 17.0539C30.946 17.1996 31.8461 17.6345 32.5267 18.2915C33.5373 18.1104 34.5064 17.7739 35.3922 17.2964C35.0554 18.2456 34.3502 19.0512 33.408 19.5633C34.3026 19.4673 35.1763 19.2501 36 18.9189C35.3953 19.7414 34.6345 20.4598 33.753 21.0405V21.0405Z" fill="black"/>
</svg>
